<?xml version="1.0" encoding="UTF-8"?>
<!DOCTYPE svg PUBLIC "-//W3C//DTD SVG 1.1//EN" "http://www.w3.org/Graphics/SVG/1.1/DTD/svg11.dtd">
<svg xmlns="http://www.w3.org/2000/svg" version="1.1" width="546px" height="304px" style="shape-rendering:geometricPrecision; text-rendering:geometricPrecision; image-rendering:optimizeQuality; fill-rule:evenodd; clip-rule:evenodd" xmlns:xlink="http://www.w3.org/1999/xlink">
<g><path style="opacity:1" fill="#800755" d="M 220.5,50.5 C 224.647,51.3247 228.981,51.8247 233.5,52C 230.04,57.7519 226.707,63.5853 223.5,69.5C 221.709,70.1698 220.042,70.8365 218.5,71.5C 202.018,69.9632 186.684,73.4632 172.5,82C 147.896,96.265 130.063,116.432 119,142.5C 116.635,149.62 119.135,153.286 126.5,153.5C 129.613,153.994 132.613,153.161 135.5,151C 143.319,146.003 150.319,140.169 156.5,133.5C 161.5,127.833 166.833,122.5 172.5,117.5C 176.5,115.5 179.5,112.5 181.5,108.5C 187.297,101.843 194.631,99.0096 203.5,100C 204.022,100.561 204.355,101.228 204.5,102C 195.505,114.316 186.505,126.649 177.5,139C 178.448,139.483 179.448,139.649 180.5,139.5C 180.56,140.043 180.893,140.376 181.5,140.5C 192.569,132.603 202.902,123.77 212.5,114C 218.97,108.874 225.97,104.541 233.5,101C 232.906,100.536 232.239,100.369 231.5,100.5C 250.957,94.1209 257.957,100.954 252.5,121C 253.108,121.87 253.941,122.37 255,122.5C 264.446,118.561 271.946,112.227 277.5,103.5C 266.913,99.6264 257.747,93.6264 250,85.5C 245.188,78.9144 243.521,71.581 245,63.5C 248.355,57.1519 253.688,54.1519 261,54.5C 276.727,55.8788 289.393,62.8788 299,75.5C 304.132,82.9254 308.632,90.7588 312.5,99C 322.167,99.3333 331.833,99.6667 341.5,100C 342.5,100.333 343.5,100.667 344.5,101C 347.479,104.505 350.313,108.005 353,111.5C 357.155,108.013 361.322,104.513 365.5,101C 367.969,98.9057 370.636,98.4057 373.5,99.5C 373.833,100.167 374.167,100.833 374.5,101.5C 371.61,107.168 369.943,113.168 369.5,119.5C 368.982,123.763 370.149,127.43 373,130.5C 379.75,124.754 386.25,118.588 392.5,112C 399.474,106.68 407.14,102.68 415.5,100C 421.76,98.121 425.427,100.288 426.5,106.5C 425.565,110.374 424.065,114.04 422,117.5C 412.842,128.67 401.509,136.67 388,141.5C 386.447,146.938 388.447,149.938 394,150.5C 400.047,149.392 405.547,147.058 410.5,143.5C 411.922,143.291 413.255,142.791 414.5,142C 425.53,131.304 436.197,120.304 446.5,109C 448.833,107.333 451.167,105.667 453.5,104C 456.602,101.964 459.935,100.964 463.5,101C 464.277,104.397 464.277,107.564 463.5,110.5C 454.743,119.423 446.909,129.09 440,139.5C 422.175,172.497 402.841,204.497 382,235.5C 376.46,242.707 369.96,248.874 362.5,254C 355.877,256.848 351.21,255.015 348.5,248.5C 349.171,243.807 351.005,239.474 354,235.5C 362.124,225.041 370.624,214.874 379.5,205C 379.272,204.601 378.938,204.435 378.5,204.5C 378.833,203.833 379.167,203.167 379.5,202.5C 382.394,201.118 384.894,199.118 387,196.5C 397.398,184.035 407.064,171.035 416,157.5C 417.707,155.091 418.54,152.425 418.5,149.5C 418.631,148.761 418.464,148.094 418,147.5C 407.371,158.236 394.871,166.069 380.5,171C 371.509,173.595 366.009,170.428 364,161.5C 363.254,156.546 363.754,151.713 365.5,147C 365.167,146.5 364.833,146 364.5,145.5C 359.094,148.483 353.927,148.15 349,144.5C 347.991,142.975 347.491,141.308 347.5,139.5C 346.178,139.33 345.011,139.663 344,140.5C 337.891,150.274 331.391,159.774 324.5,169C 317.174,169.5 309.841,169.666 302.5,169.5C 302.491,167.692 302.991,166.025 304,164.5C 313.994,151.163 322.328,136.829 329,121.5C 330.004,118.007 329.504,114.841 327.5,112C 323.23,110.925 318.897,110.425 314.5,110.5C 311.15,133.384 300.483,151.884 282.5,166C 271.557,172.72 261.39,171.887 252,163.5C 249.363,154.243 249.863,145.077 253.5,136C 252.737,135.056 251.737,134.556 250.5,134.5C 246.722,135.555 243.389,137.388 240.5,140C 233.5,148.333 225.833,156 217.5,163C 209.2,169.408 199.867,171.742 189.5,170C 182.998,165.544 181.665,159.711 185.5,152.5C 185.167,151.5 184.5,150.833 183.5,150.5C 173.308,156.194 163.808,162.86 155,170.5C 139.738,196.467 120.571,219.301 97.5,239C 87.5534,247.139 76.2201,252.306 63.5,254.5C 59.5176,254.139 55.851,253.139 52.5,251.5C 52.9382,251.565 53.2716,251.399 53.5,251C 49.25,246.819 48.4167,241.985 51,236.5C 52.8287,232.172 55.162,228.172 58,224.5C 64.2362,217.593 71.0695,211.427 78.5,206C 95.4952,194.5 112.828,183.5 130.5,173C 133.731,170.273 136.397,167.106 138.5,163.5C 138.376,162.893 138.043,162.56 137.5,162.5C 137.53,161.503 137.03,160.836 136,160.5C 129.878,163.977 123.378,166.477 116.5,168C 108.143,169.375 100.143,168.375 92.5,165C 87.7548,159.731 86.2548,153.564 88,146.5C 88.21,144.942 88.71,143.609 89.5,142.5C 102.604,118.547 120.604,98.7135 143.5,83C 156.568,75.3335 169.234,68.1668 181.5,61.5C 193.74,55.5202 206.74,51.8535 220.5,50.5 Z M 276.5,91.5 C 272.568,88.9083 268.901,85.9083 265.5,82.5C 259.555,67.6128 264.222,63.1128 279.5,69C 290.827,76.1441 297.827,86.3108 300.5,99.5C 291.923,98.5436 283.923,95.877 276.5,91.5 Z M 292.5,108.5 C 295.607,108.351 298.607,108.851 301.5,110C 302.624,110.839 303.291,112.006 303.5,113.5C 301.13,126.407 295.463,137.574 286.5,147C 271.729,154.896 268.229,151.396 276,136.5C 281.349,128.82 287.682,122.153 295,116.5C 294.516,113.802 293.683,111.135 292.5,108.5 Z M 237.5,112.5 C 239.167,112.5 240.833,112.5 242.5,112.5C 242.657,113.873 242.49,115.207 242,116.5C 238,119.833 234,123.167 230,126.5C 229.333,127.5 229.333,128.5 230,129.5C 231.022,130.354 231.855,131.354 232.5,132.5C 228.028,142.141 220.861,148.808 211,152.5C 208.399,152.399 206.899,151.065 206.5,148.5C 210.573,137.549 217.24,128.383 226.5,121C 230.235,118.147 233.902,115.313 237.5,112.5 Z M 409.5,112.5 C 410.5,112.5 411.5,112.5 412.5,112.5C 409.72,121.614 403.72,127.28 394.5,129.5C 394.608,127.217 395.441,125.217 397,123.5C 400.767,119.224 404.934,115.557 409.5,112.5 Z M 107.5,203.5 C 100.394,217.945 90.0604,229.611 76.5,238.5C 73.1148,239.21 70.7814,238.044 69.5,235C 71.0126,230.809 73.1793,226.976 76,223.5C 83.5818,215.914 91.7485,209.081 100.5,203C 102.65,201.589 104.984,200.755 107.5,200.5C 107.5,201.5 107.5,202.5 107.5,203.5 Z"/></g>
<g><path style="opacity:1" fill="#86265b" d="M 218.5,71.5 C 220.042,70.8365 221.709,70.1698 223.5,69.5C 226.707,63.5853 230.04,57.7519 233.5,52C 228.981,51.8247 224.647,51.3247 220.5,50.5C 222.746,49.8934 225.079,49.56 227.5,49.5C 230.454,49.2914 233.121,49.9581 235.5,51.5C 232,57.8333 228.5,64.1667 225,70.5C 222.984,72.6082 220.817,72.9416 218.5,71.5 Z"/></g>
<g><path style="opacity:1" fill="#7e1a51" d="M 181.5,61.5 C 169.234,68.1668 156.568,75.3335 143.5,83C 120.604,98.7135 102.604,118.547 89.5,142.5C 92.0125,134.475 95.8458,127.142 101,120.5C 122.939,94.0476 149.772,74.3809 181.5,61.5 Z"/></g>
<g><path style="opacity:1" fill="#800455" d="M 484.5,76.5 C 488.424,85.3246 485.758,91.3246 476.5,94.5C 471.987,94.1046 470.487,91.7712 472,87.5C 475.054,83.6214 478.221,79.9547 481.5,76.5C 482.5,75.1667 483.5,75.1667 484.5,76.5 Z"/></g>
<g><path style="opacity:1" fill="#86285b" d="M 265.5,82.5 C 268.901,85.9083 272.568,88.9083 276.5,91.5C 275.883,91.6107 275.383,91.944 275,92.5C 271.484,90.0736 268.151,87.407 265,84.5C 264.308,83.5632 264.475,82.8966 265.5,82.5 Z"/></g>
<g><path style="opacity:1" fill="#832358" d="M 481.5,76.5 C 478.221,79.9547 475.054,83.6214 472,87.5C 470.487,91.7712 471.987,94.1046 476.5,94.5C 485.758,91.3246 488.424,85.3246 484.5,76.5C 486.411,76.5743 487.578,77.5743 488,79.5C 488.641,87.8706 484.975,93.5373 477,96.5C 471.556,95.7401 469.223,92.7401 470,87.5C 472.735,82.5962 476.569,78.9295 481.5,76.5 Z"/></g>
<g><path style="opacity:1" fill="#7e1c51" d="M 463.5,110.5 C 464.277,107.564 464.277,104.397 463.5,101C 459.935,100.964 456.602,101.964 453.5,104C 451.167,105.667 448.833,107.333 446.5,109C 436.197,120.304 425.53,131.304 414.5,142C 413.255,142.791 411.922,143.291 410.5,143.5C 422.634,132.199 434.3,120.366 445.5,108C 449.569,104.937 453.902,102.27 458.5,100C 467.119,99.7588 468.785,103.259 463.5,110.5 Z"/></g>
<g><path style="opacity:1" fill="#7e1d51" d="M 231.5,100.5 C 232.239,100.369 232.906,100.536 233.5,101C 225.97,104.541 218.97,108.874 212.5,114C 202.902,123.77 192.569,132.603 181.5,140.5C 180.893,140.376 180.56,140.043 180.5,139.5C 191.884,131.292 202.55,122.125 212.5,112C 218.224,107.139 224.557,103.306 231.5,100.5 Z"/></g>
<g><path style="opacity:1" fill="#924068" d="M 181.5,108.5 C 179.5,112.5 176.5,115.5 172.5,117.5C 175.167,114.167 178.167,111.167 181.5,108.5 Z"/></g>
<g><path style="opacity:1" fill="#812055" d="M 156.5,133.5 C 150.319,140.169 143.319,146.003 135.5,151C 132.613,153.161 129.613,153.994 126.5,153.5C 130.075,151.713 133.741,149.879 137.5,148C 143.71,142.951 150.043,138.117 156.5,133.5 Z"/></g>
<g><path style="opacity:1" fill="#7f1c52" d="M 418.5,149.5 C 418.54,152.425 417.707,155.091 416,157.5C 407.064,171.035 397.398,184.035 387,196.5C 384.894,199.118 382.394,201.118 379.5,202.5C 394.491,186.194 407.491,168.527 418.5,149.5 Z"/></g>
<g><path style="opacity:1" fill="#7f1c52" d="M 137.5,162.5 C 138.043,162.56 138.376,162.893 138.5,163.5C 136.397,167.106 133.731,170.273 130.5,173C 112.828,183.5 95.4952,194.5 78.5,206C 71.0695,211.427 64.2362,217.593 58,224.5C 55.162,228.172 52.8287,232.172 51,236.5C 48.4167,241.985 49.25,246.819 53.5,251C 53.2716,251.399 52.9382,251.565 52.5,251.5C 49.3927,249.802 47.7261,247.135 47.5,243.5C 48.707,236.421 51.5403,230.088 56,224.5C 62.5687,217.261 69.7354,210.761 77.5,205C 94.6575,192.918 112.324,181.585 130.5,171C 133.423,168.584 135.757,165.75 137.5,162.5 Z"/></g>
<g><path style="opacity:1" fill="#801e53" d="M 378.5,204.5 C 378.938,204.435 379.272,204.601 379.5,205C 370.624,214.874 362.124,225.041 354,235.5C 351.005,239.474 349.171,243.807 348.5,248.5C 347.444,243.796 348.61,239.463 352,235.5C 360.324,224.681 369.157,214.347 378.5,204.5 Z"/></g>
<g><path style="opacity:1" fill="#7f1d52" d="M 107.5,203.5 C 107.54,206.425 106.707,209.091 105,211.5C 98.9506,220.556 91.784,228.722 83.5,236C 81.559,237.903 79.2257,238.736 76.5,238.5C 90.0604,229.611 100.394,217.945 107.5,203.5 Z"/></g>
</svg>
